<mxfile host="app.diagrams.net" modified="2022-06-13T03:37:05.216Z" agent="5.0 (Macintosh; Intel Mac OS X 10_15_7) AppleWebKit/537.36 (KHTML, like Gecko) Chrome/102.0.0.0 Safari/537.36" etag="Dsc_1uWKyQhgu3Otk-vL" version="20.0.1" type="github">
  <diagram id="9jARseiPN1OIlkECBNOo" name="Page-1">
    <mxGraphModel dx="946" dy="589" grid="1" gridSize="10" guides="1" tooltips="1" connect="1" arrows="1" fold="1" page="1" pageScale="1" pageWidth="850" pageHeight="1100" math="0" shadow="0">
      <root>
        <mxCell id="0" />
        <mxCell id="1" parent="0" />
        <mxCell id="09jUZh2quq0GwGBjG0v_-36" style="edgeStyle=orthogonalEdgeStyle;rounded=0;orthogonalLoop=1;jettySize=auto;html=1;exitX=0.855;exitY=1;exitDx=0;exitDy=-4.35;exitPerimeter=0;entryX=1;entryY=0.75;entryDx=0;entryDy=0;fillColor=#008a00;strokeColor=#005700;" edge="1" parent="1" source="09jUZh2quq0GwGBjG0v_-1" target="09jUZh2quq0GwGBjG0v_-8">
          <mxGeometry relative="1" as="geometry">
            <mxPoint x="784" y="440" as="targetPoint" />
          </mxGeometry>
        </mxCell>
        <mxCell id="09jUZh2quq0GwGBjG0v_-1" value="MongoDB" style="shape=cylinder3;whiteSpace=wrap;html=1;boundedLbl=1;backgroundOutline=1;size=15;fillColor=#dae8fc;strokeColor=#6c8ebf;" vertex="1" parent="1">
          <mxGeometry x="690" y="50" width="110" height="150" as="geometry" />
        </mxCell>
        <mxCell id="09jUZh2quq0GwGBjG0v_-22" style="edgeStyle=orthogonalEdgeStyle;rounded=0;orthogonalLoop=1;jettySize=auto;html=1;entryX=0;entryY=0.5;entryDx=0;entryDy=0;fillColor=#0050ef;strokeColor=#001DBC;" edge="1" parent="1" source="09jUZh2quq0GwGBjG0v_-2" target="09jUZh2quq0GwGBjG0v_-13">
          <mxGeometry relative="1" as="geometry">
            <mxPoint x="230" y="330" as="targetPoint" />
            <Array as="points">
              <mxPoint x="230" y="60" />
              <mxPoint x="230" y="310" />
            </Array>
          </mxGeometry>
        </mxCell>
        <mxCell id="09jUZh2quq0GwGBjG0v_-29" style="edgeStyle=orthogonalEdgeStyle;rounded=0;orthogonalLoop=1;jettySize=auto;html=1;exitX=1;exitY=0.5;exitDx=0;exitDy=0;exitPerimeter=0;entryX=0.625;entryY=-0.006;entryDx=0;entryDy=0;entryPerimeter=0;fillColor=#008a00;strokeColor=#005700;" edge="1" parent="1" source="09jUZh2quq0GwGBjG0v_-2" target="09jUZh2quq0GwGBjG0v_-8">
          <mxGeometry relative="1" as="geometry" />
        </mxCell>
        <mxCell id="09jUZh2quq0GwGBjG0v_-2" value="Firebase Auth" style="shape=cylinder3;whiteSpace=wrap;html=1;boundedLbl=1;backgroundOutline=1;size=15;fillColor=#fff2cc;strokeColor=#d6b656;" vertex="1" parent="1">
          <mxGeometry x="370" y="20" width="160" height="80" as="geometry" />
        </mxCell>
        <mxCell id="09jUZh2quq0GwGBjG0v_-3" value="" style="whiteSpace=wrap;html=1;aspect=fixed;fillColor=#d5e8d4;strokeColor=#82b366;" vertex="1" parent="1">
          <mxGeometry x="30" y="270" width="80" height="80" as="geometry" />
        </mxCell>
        <mxCell id="09jUZh2quq0GwGBjG0v_-4" value="" style="whiteSpace=wrap;html=1;aspect=fixed;fillColor=#d5e8d4;strokeColor=#82b366;" vertex="1" parent="1">
          <mxGeometry x="50" y="290" width="80" height="80" as="geometry" />
        </mxCell>
        <mxCell id="09jUZh2quq0GwGBjG0v_-9" style="edgeStyle=orthogonalEdgeStyle;rounded=0;orthogonalLoop=1;jettySize=auto;html=1;exitX=0.5;exitY=1;exitDx=0;exitDy=0;entryX=0;entryY=0.5;entryDx=0;entryDy=0;fillColor=#f0a30a;strokeColor=#BD7000;" edge="1" parent="1" source="09jUZh2quq0GwGBjG0v_-5" target="09jUZh2quq0GwGBjG0v_-6">
          <mxGeometry relative="1" as="geometry" />
        </mxCell>
        <mxCell id="09jUZh2quq0GwGBjG0v_-5" value="Components" style="whiteSpace=wrap;html=1;aspect=fixed;fillColor=#d5e8d4;strokeColor=#82b366;" vertex="1" parent="1">
          <mxGeometry x="70" y="310" width="80" height="80" as="geometry" />
        </mxCell>
        <mxCell id="09jUZh2quq0GwGBjG0v_-10" style="edgeStyle=orthogonalEdgeStyle;rounded=0;orthogonalLoop=1;jettySize=auto;html=1;exitX=1;exitY=0.5;exitDx=0;exitDy=0;entryX=0;entryY=0.5;entryDx=0;entryDy=0;fillColor=#f0a30a;strokeColor=#BD7000;" edge="1" parent="1" source="09jUZh2quq0GwGBjG0v_-6" target="09jUZh2quq0GwGBjG0v_-7">
          <mxGeometry relative="1" as="geometry" />
        </mxCell>
        <mxCell id="09jUZh2quq0GwGBjG0v_-33" style="edgeStyle=orthogonalEdgeStyle;rounded=0;orthogonalLoop=1;jettySize=auto;html=1;exitX=0;exitY=0.75;exitDx=0;exitDy=0;entryX=0.25;entryY=1;entryDx=0;entryDy=0;fillColor=#008a00;strokeColor=#005700;" edge="1" parent="1" source="09jUZh2quq0GwGBjG0v_-6" target="09jUZh2quq0GwGBjG0v_-5">
          <mxGeometry relative="1" as="geometry" />
        </mxCell>
        <mxCell id="09jUZh2quq0GwGBjG0v_-6" value="Service" style="rounded=1;whiteSpace=wrap;html=1;fillColor=#e1d5e7;strokeColor=#9673a6;" vertex="1" parent="1">
          <mxGeometry x="200" y="390" width="120" height="60" as="geometry" />
        </mxCell>
        <mxCell id="09jUZh2quq0GwGBjG0v_-14" style="edgeStyle=orthogonalEdgeStyle;rounded=0;orthogonalLoop=1;jettySize=auto;html=1;exitX=0.5;exitY=0;exitDx=0;exitDy=0;entryX=0.5;entryY=1;entryDx=0;entryDy=0;fillColor=#f0a30a;strokeColor=#BD7000;" edge="1" parent="1" source="09jUZh2quq0GwGBjG0v_-7" target="09jUZh2quq0GwGBjG0v_-13">
          <mxGeometry relative="1" as="geometry" />
        </mxCell>
        <mxCell id="09jUZh2quq0GwGBjG0v_-7" value="Interceptor" style="rounded=1;whiteSpace=wrap;html=1;fillColor=#f8cecc;strokeColor=#b85450;" vertex="1" parent="1">
          <mxGeometry x="380" y="390" width="120" height="60" as="geometry" />
        </mxCell>
        <mxCell id="09jUZh2quq0GwGBjG0v_-26" style="edgeStyle=orthogonalEdgeStyle;rounded=0;orthogonalLoop=1;jettySize=auto;html=1;exitX=0.5;exitY=0;exitDx=0;exitDy=0;entryX=1;entryY=0.5;entryDx=0;entryDy=0;" edge="1" parent="1" source="09jUZh2quq0GwGBjG0v_-8" target="09jUZh2quq0GwGBjG0v_-24">
          <mxGeometry relative="1" as="geometry" />
        </mxCell>
        <mxCell id="09jUZh2quq0GwGBjG0v_-32" style="edgeStyle=orthogonalEdgeStyle;rounded=0;orthogonalLoop=1;jettySize=auto;html=1;exitX=0.5;exitY=1;exitDx=0;exitDy=0;entryX=0.5;entryY=1;entryDx=0;entryDy=0;fillColor=#008a00;strokeColor=#005700;" edge="1" parent="1" source="09jUZh2quq0GwGBjG0v_-8" target="09jUZh2quq0GwGBjG0v_-6">
          <mxGeometry relative="1" as="geometry">
            <Array as="points">
              <mxPoint x="620" y="470" />
              <mxPoint x="260" y="470" />
            </Array>
          </mxGeometry>
        </mxCell>
        <mxCell id="09jUZh2quq0GwGBjG0v_-35" style="edgeStyle=orthogonalEdgeStyle;rounded=0;orthogonalLoop=1;jettySize=auto;html=1;exitX=1;exitY=0.25;exitDx=0;exitDy=0;entryX=0.573;entryY=0.997;entryDx=0;entryDy=0;entryPerimeter=0;fillColor=#f0a30a;strokeColor=#BD7000;" edge="1" parent="1" source="09jUZh2quq0GwGBjG0v_-8" target="09jUZh2quq0GwGBjG0v_-1">
          <mxGeometry relative="1" as="geometry" />
        </mxCell>
        <mxCell id="09jUZh2quq0GwGBjG0v_-8" value="NODE JS Backend" style="rounded=0;whiteSpace=wrap;html=1;fillColor=#a0522d;strokeColor=#6D1F00;fontColor=#ffffff;" vertex="1" parent="1">
          <mxGeometry x="570" y="380" width="160" height="80" as="geometry" />
        </mxCell>
        <mxCell id="09jUZh2quq0GwGBjG0v_-15" style="edgeStyle=orthogonalEdgeStyle;rounded=0;orthogonalLoop=1;jettySize=auto;html=1;exitX=1;exitY=0.5;exitDx=0;exitDy=0;entryX=0;entryY=0.5;entryDx=0;entryDy=0;startArrow=none;fillColor=#f0a30a;strokeColor=#BD7000;" edge="1" parent="1" source="09jUZh2quq0GwGBjG0v_-17" target="09jUZh2quq0GwGBjG0v_-8">
          <mxGeometry relative="1" as="geometry" />
        </mxCell>
        <mxCell id="09jUZh2quq0GwGBjG0v_-19" style="edgeStyle=orthogonalEdgeStyle;rounded=0;orthogonalLoop=1;jettySize=auto;html=1;exitX=0.5;exitY=0;exitDx=0;exitDy=0;entryX=0.5;entryY=1;entryDx=0;entryDy=0;entryPerimeter=0;startArrow=none;fillColor=#0050ef;strokeColor=#001DBC;" edge="1" parent="1" source="09jUZh2quq0GwGBjG0v_-20" target="09jUZh2quq0GwGBjG0v_-2">
          <mxGeometry relative="1" as="geometry">
            <mxPoint x="400" y="150" as="targetPoint" />
          </mxGeometry>
        </mxCell>
        <mxCell id="09jUZh2quq0GwGBjG0v_-13" value="Logged In?" style="rhombus;whiteSpace=wrap;html=1;fillColor=#6d8764;fontColor=#ffffff;strokeColor=#3A5431;" vertex="1" parent="1">
          <mxGeometry x="310" y="270" width="80" height="80" as="geometry" />
        </mxCell>
        <mxCell id="09jUZh2quq0GwGBjG0v_-17" value="Yes" style="text;html=1;strokeColor=default;fillColor=none;align=center;verticalAlign=middle;whiteSpace=wrap;rounded=0;" vertex="1" parent="1">
          <mxGeometry x="425" y="300" width="60" height="30" as="geometry" />
        </mxCell>
        <mxCell id="09jUZh2quq0GwGBjG0v_-18" value="" style="edgeStyle=orthogonalEdgeStyle;rounded=0;orthogonalLoop=1;jettySize=auto;html=1;exitX=1;exitY=0.5;exitDx=0;exitDy=0;entryX=0;entryY=0.5;entryDx=0;entryDy=0;endArrow=none;fillColor=#f0a30a;strokeColor=#BD7000;" edge="1" parent="1" source="09jUZh2quq0GwGBjG0v_-13" target="09jUZh2quq0GwGBjG0v_-17">
          <mxGeometry relative="1" as="geometry">
            <mxPoint x="390" y="310" as="sourcePoint" />
            <mxPoint x="540" y="340" as="targetPoint" />
          </mxGeometry>
        </mxCell>
        <mxCell id="09jUZh2quq0GwGBjG0v_-20" value="No" style="text;html=1;strokeColor=default;fillColor=none;align=center;verticalAlign=middle;whiteSpace=wrap;rounded=0;" vertex="1" parent="1">
          <mxGeometry x="320" y="170" width="60" height="30" as="geometry" />
        </mxCell>
        <mxCell id="09jUZh2quq0GwGBjG0v_-21" value="" style="edgeStyle=orthogonalEdgeStyle;rounded=0;orthogonalLoop=1;jettySize=auto;html=1;exitX=0.5;exitY=0;exitDx=0;exitDy=0;entryX=0.5;entryY=1;entryDx=0;entryDy=0;entryPerimeter=0;endArrow=none;fillColor=#0050ef;strokeColor=#001DBC;" edge="1" parent="1" source="09jUZh2quq0GwGBjG0v_-13" target="09jUZh2quq0GwGBjG0v_-20">
          <mxGeometry relative="1" as="geometry">
            <mxPoint x="400" y="100" as="targetPoint" />
            <mxPoint x="350" y="270" as="sourcePoint" />
          </mxGeometry>
        </mxCell>
        <mxCell id="09jUZh2quq0GwGBjG0v_-27" style="edgeStyle=orthogonalEdgeStyle;rounded=0;orthogonalLoop=1;jettySize=auto;html=1;exitX=0.5;exitY=0;exitDx=0;exitDy=0;entryX=0.855;entryY=1;entryDx=0;entryDy=-4.35;entryPerimeter=0;" edge="1" parent="1" source="09jUZh2quq0GwGBjG0v_-24" target="09jUZh2quq0GwGBjG0v_-2">
          <mxGeometry relative="1" as="geometry" />
        </mxCell>
        <mxCell id="09jUZh2quq0GwGBjG0v_-24" value="Authorised?" style="rhombus;whiteSpace=wrap;html=1;strokeColor=#3A5431;fillColor=#6d8764;fontColor=#ffffff;" vertex="1" parent="1">
          <mxGeometry x="466" y="170" width="80" height="80" as="geometry" />
        </mxCell>
        <mxCell id="09jUZh2quq0GwGBjG0v_-34" value="&lt;h1&gt;Data Flow&lt;/h1&gt;&lt;p&gt;Data flow of Meta Classic UI&lt;/p&gt;" style="text;html=1;strokeColor=none;fillColor=none;spacing=5;spacingTop=-20;whiteSpace=wrap;overflow=hidden;rounded=0;" vertex="1" parent="1">
          <mxGeometry x="10" y="50" width="190" height="120" as="geometry" />
        </mxCell>
      </root>
    </mxGraphModel>
  </diagram>
</mxfile>
